<svg width="159" height="73" viewBox="0 0 159 73" fill="none" xmlns="http://www.w3.org/2000/svg">
<path d="M145.781 54.9193L145.742 49.192H146.758C147.657 52.5887 149.571 54.3267 152.345 54.3267C154.65 54.3267 156.057 53.0233 156.057 51.5223C156.057 49.7056 154.299 49.8636 151.134 49.3896C147.461 48.8367 145.703 47.6913 145.703 44.5709C145.703 41.1346 147.891 39.0413 151.212 39.0413C152.579 39.0413 153.869 39.3968 154.924 39.9497L155.744 39.2389H156.526L156.643 43.623H155.627C154.845 41.2135 153.361 39.9894 151.251 39.9894C149.063 39.9894 147.696 41.0162 147.696 42.122C147.696 43.5441 149.337 43.5834 152.619 44.018C156.565 44.5315 158.166 45.8743 158.166 49.429C158.166 53.0629 155.978 55.3536 152.228 55.3536C150.392 55.3536 148.907 54.8796 147.813 54.0501L146.719 54.9193H145.781Z" fill="#E7873B"/>
<path d="M123.322 53.7342H125.667V40.6213H123.088V39.3969C125.628 39.3969 128.245 39.3179 131.019 39.1203V43.0306C132.504 40.3054 134.379 39.0809 137.231 39.0809C141.295 39.0809 141.724 40.9769 141.724 44.6895V53.7342H143.991V54.9193H134.457V53.7342H136.45V42.8332C136.45 41.4112 135.981 40.7397 134.848 40.7397C133.051 40.7397 131.058 43.3071 131.058 46.3483V53.7342H133.012V54.9193H123.322V53.7342Z" fill="#E7873B"/>
<path d="M111.958 39.9894C108.989 39.9894 108.872 41.964 108.872 47.1777V48.7577C108.872 52.7467 109.067 54.4057 111.958 54.4057C114.85 54.4057 115.006 52.6284 115.006 47.7703V45.4794C115.006 41.6481 114.772 39.9894 111.958 39.9894ZM102.816 47.2171C102.816 42.517 106.45 39.0413 111.919 39.0413C117.389 39.0413 121.062 42.4776 121.062 47.1777C121.062 51.8779 117.389 55.3536 111.919 55.3536C106.45 55.3536 102.816 51.9175 102.816 47.2171Z" fill="#E7873B"/>
<path d="M91.0405 54.9196V53.7346H93.3458V40.7006H90.8063V39.5156C93.6192 39.4366 96.2761 39.2786 98.7374 39.0416V53.7346H101.16V54.9196H91.0405ZM93.2285 32.8407C93.2285 31.3004 94.4788 30.0759 95.9634 30.0759C97.4482 30.0759 98.6592 31.3004 98.6592 32.8407C98.6592 34.3415 97.4482 35.6056 95.9243 35.6056C94.4006 35.6056 93.2285 34.3415 93.2285 32.8407Z" fill="#E7873B"/>
<path d="M80.0857 53.7345H82.3516V30.4312H79.8121V29.2464C82.6252 29.1674 85.2819 29.0094 87.7435 28.7725V53.7345H90.2048V54.9196H80.0857V53.7345Z" fill="#E7873B"/>
<path d="M69.3265 53.7345H71.5925V30.4312H69.0529V29.2464C71.8661 29.1674 74.5227 29.0094 76.9843 28.7725V53.7345H79.4456V54.9196H69.3265V53.7345Z" fill="#215675"/>
<path d="M58.762 54.9196V53.7346H61.0671V40.7006H58.5275V39.5156C61.3407 39.4366 63.9974 39.2786 66.4587 39.0416V53.7346H68.8811V54.9196H58.762ZM60.95 32.8407C60.95 31.3004 62.2001 30.0759 63.6849 30.0759C65.1695 30.0759 66.3807 31.3004 66.3807 32.8407C66.3807 34.3415 65.1695 35.6056 63.6458 35.6056C62.1221 35.6056 60.95 34.3415 60.95 32.8407Z" fill="#215675"/>
<path d="M37.6295 53.7345H39.5441V30.4312H37.6295V29.2464C39.7395 29.1674 42.1225 29.0094 44.8575 28.7725V53.7345H47.319V54.9196H37.6295V53.7345ZM45.0528 46.4275L51.8512 40.661H48.1784V39.4761H56.3443V40.661H53.4529L49.4288 44.0183L56.9303 53.7345H58.532V54.9196H48.6474V53.7345H50.6009L45.0528 46.4275Z" fill="#215675"/>
<path d="M6.64694 25.8727C1.97048 20.4802 3.20638 12.0165 9.23435 7.82495C7.06555 10.3117 5.32334 13.0322 4.84892 16.3693C4.37449 19.7062 5.23563 22.85 6.64694 25.8727Z" fill="#215675"/>
<path d="M1.97788 18.55C-0.382278 12.2666 3.03836 5.89478 9.98328 3.45239C3.70016 6.42676 1.32405 11.5492 1.97788 18.55Z" fill="#215675"/>
<path d="M21.6489 20.3956C21.6489 20.3956 20.0821 20.9398 19.9425 22.2173C19.803 23.4951 20.421 24.426 20.114 24.7362C20.114 24.7362 18.5831 22.5639 19.193 21.3268C19.803 20.0894 21.6489 20.3956 21.6489 20.3956Z" fill="#215675"/>
<path d="M23.4873 7.07178C23.4873 7.07178 25.369 7.15226 25.6561 7.42236C25.9162 7.79064 26.1153 8.19878 26.2461 8.6316C26.2461 8.6316 24.1013 7.98674 23.7943 7.68848C23.6196 7.52876 23.51 7.30874 23.4873 7.07178Z" fill="#E7873B"/>
<path d="M17.6627 4.35906C17.6627 4.35906 15.1869 5.56804 16.8653 8.50229L17.264 9.07863C17.264 9.07863 14.9955 6.97462 15.3982 5.63657C15.8009 4.29851 17.6627 4.35906 17.6627 4.35906Z" fill="#215675"/>
<path d="M6.69889 3.29504C6.69889 3.29504 13.6717 -0.662681 21.0512 2.68652C21.0512 2.68652 17.5229 0.707642 13.6558 0.707642C9.78863 0.707642 6.69889 3.29504 6.69889 3.29504Z" fill="#E7873B"/>
<path d="M30.5721 19.3237C30.7044 19.4695 30.8013 19.6449 30.8552 19.8355L30.7714 19.9524L30.8312 19.8637L30.3249 19.5131C30.3249 19.5131 30.4366 19.4406 30.5721 19.3237Z" fill="#E7873B"/>
<path d="M32.9883 16.9863H33.6062V17.0267C33.6062 17.071 33.6062 17.1154 33.6062 17.1555C33.4587 17.1555 33.2673 17.1194 33.0401 17.1032L32.9883 16.9863Z" fill="#E7873B"/>
<path d="M35.6187 10.941L35.1204 10.8523L35.1004 10.0018L35.6187 10.941Z" fill="#E7873B"/>
<path d="M36.1446 11.5896C36.1446 11.5896 35.136 17.3328 33.6011 17.1556C33.6011 17.1152 33.6011 17.0709 33.6011 17.0265V16.9862H32.9871L33.031 17.103C30.9499 16.9378 26.1498 16.7928 28.2907 17.9736C28.9485 18.3364 30.0329 18.691 30.5711 19.3237C30.4356 19.4405 30.324 19.5173 30.324 19.5173L30.8303 19.8678C30.8303 19.8678 30.8303 19.8678 30.8542 19.8397C30.9247 20.115 30.9068 20.4058 30.8024 20.6699C30.2323 22.2579 28.3107 23.741 26.2056 21.1414C26.2056 21.1414 25.3246 20.2184 24.8661 20.3071C24.4076 20.3958 26.409 19.7066 26.9432 20.6699C27.4774 21.6332 28.6974 21.6372 28.6974 21.6372C28.6974 21.6372 29.7738 21.484 29.8495 20.6296C29.9253 19.7752 28.6974 18.8442 27.7764 18.5378C26.8555 18.2315 26.5525 16.6759 27.7764 16.3655C29.5807 15.9097 31.4542 15.8016 33.2981 16.047C33.2981 16.047 34.6815 13.8102 34.821 12.2626C34.1512 11.8597 32.6163 11.5373 32.3771 10.9328C32.0702 10.1549 32.3771 9.54215 32.6403 10.0096C32.8237 10.3402 34.211 10.6627 35.0323 10.8157C35.1758 10.3402 35.2277 10.0741 34.4861 9.26806C33.2901 7.98258 27.1704 6.29369 26.2535 5.58853C25.3365 4.88313 22.8289 0.828623 20.2454 0.69564C18.7357 0.604019 17.2225 0.799496 15.7843 1.27198C15.7843 1.27198 19.0614 -1.01727 22.0395 0.546511C25.0176 2.11027 25.5 3.77082 26.9432 4.64941C28.3864 5.52799 36.0131 7.95418 36.4915 9.36898C36.6457 9.73451 36.695 10.1369 36.6337 10.5296C36.5725 10.9223 36.403 11.2898 36.1446 11.5896Z" fill="#E7873B"/>
<path d="M35.6187 10.941L35.1204 10.8523L35.1004 10.0018L35.6187 10.941Z" fill="#E7873B"/>
<path d="M6.39606 20.4806C6.39606 20.4806 6.93826 25.9297 22.2633 31.0724C37.5884 36.2151 32.6886 50.7847 30.5398 52.6427C30.5398 52.6427 34.5265 44.582 25.0221 39.935C15.5177 35.2881 8.91569 33.8534 6.39606 20.4806Z" fill="#215675"/>
<path d="M33.6062 16.9863V17.0267C33.6062 17.071 33.6062 17.1154 33.6062 17.1555C33.5315 17.5572 33.3301 17.9235 33.0321 18.1995C33.2793 17.9374 33.1238 17.3531 33.0321 17.1032L32.9883 16.9863H33.6062Z" fill="#E7873B"/>
<path d="M30.8552 19.8363L30.7714 19.9531L30.8312 19.8644L30.3249 19.5138C30.3249 19.5138 30.4366 19.4371 30.5721 19.3202C30.7954 19.1269 31.0824 18.8164 31.0266 18.5142C31.1375 18.9609 31.0759 19.4336 30.8552 19.8363Z" fill="#E7873B"/>
<path d="M11.9776 8.30872C11.9776 8.30872 8.32967 16.9537 14.6765 22.5479C21.0234 28.1421 26.2381 30.6086 26.5411 31.2413C26.5411 31.2413 10.9051 27.2109 7.8393 19.7751C4.77349 12.3391 11.9776 8.30872 11.9776 8.30872Z" fill="#E7873B"/>
<path d="M10.3308 5.3302C10.3308 5.3302 6.5673 6.85364 4.68555 10.2755C5.14609 9.04187 5.90338 7.94401 6.88903 7.08063C7.87463 6.217 9.0575 5.6155 10.3308 5.3302Z" fill="#E7873B"/>
<path d="M0.18853 14.2375C0.18853 14.2375 -0.0466895 18.3245 2.21779 21.4922C1.31073 20.5483 0.65032 19.3907 0.296047 18.1241C-0.0582256 16.8578 -0.0951279 15.522 0.18853 14.2375Z" fill="#E7873B"/>
<path d="M27.6573 42.7357C27.6573 42.7357 32.3537 47.9347 29.0287 53.3918C25.704 58.8489 13.4009 60.0903 4.99281 52.344C4.99281 52.344 25.6203 59.4696 27.6573 42.7357Z" fill="#E7873B"/>
<path d="M149.497 71.6094H150.478V61.8105H149.399V61.3149C150.559 61.3149 151.671 61.2653 152.734 61.1661V67.1478C153.355 66.0078 154.139 65.4955 155.333 65.4955C156.869 65.4955 157.212 66.1563 157.212 67.5609V71.6094H158.16V72.105H154.156V71.6094H155.006V67.0653C155.006 66.4703 154.81 66.2059 154.335 66.2059C153.567 66.2059 152.734 67.2636 152.734 68.5359V71.6094H153.567V72.105H149.497V71.6094Z" fill="#215675"/>
<path d="M148.155 69.9232L148.531 70.0555C148.024 71.5261 147.044 72.2697 145.622 72.2697C143.529 72.2697 142.009 70.7495 142.009 68.8493C142.009 66.9984 143.627 65.4618 145.769 65.4618C147.289 65.4618 148.253 66.2549 148.253 67.2795C148.253 67.8907 147.812 68.337 147.207 68.337C146.504 68.337 146.095 67.8907 146.095 67.2299C146.095 66.602 146.602 66.4037 146.602 66.2218C146.602 65.9574 146.324 65.8418 145.769 65.8418C144.559 65.8418 144.51 66.4697 144.51 67.8578V69.8407C144.51 71.2122 144.641 71.8072 145.801 71.8072C146.929 71.8072 147.73 71.1626 148.155 69.9232Z" fill="#215675"/>
<path d="M140.404 69.9232L140.78 70.0555C140.24 71.5757 139.21 72.2864 137.56 72.2864C135.271 72.2864 133.833 70.9478 133.833 68.9485C133.833 66.982 135.369 65.4618 137.527 65.4618C139.488 65.4618 140.698 66.6349 140.698 68.5189V68.6014H136.415V70.2207C136.415 71.3774 136.677 71.8732 137.723 71.8732C139.031 71.8732 139.93 71.2122 140.404 69.9232ZM136.415 68.1058H138.573V66.8499C138.573 66.1557 138.246 65.8582 137.494 65.8582C136.775 65.8582 136.415 66.1724 136.415 66.8499V68.1058Z" fill="#215675"/>
<path d="M129.091 70.6342V66.1397H128.16V65.6438H129.091V63.6445C129.402 63.6774 129.712 63.6941 130.039 63.6941C130.448 63.6941 130.857 63.6609 131.282 63.6113V65.6438H132.589V66.1397H131.282V70.6342C131.282 71.1794 131.396 71.3613 131.805 71.3613C132.213 71.3613 132.491 70.9978 132.54 70.4195H132.982C132.916 71.543 132.017 72.2701 130.71 72.2701C129.288 72.2701 129.091 71.7909 129.091 70.6342Z" fill="#215675"/>
<path d="M123.356 65.8582C122.114 65.8582 122.064 66.6845 122.064 68.8657V69.5268C122.064 71.1957 122.146 71.8897 123.356 71.8897C124.565 71.8897 124.631 71.1462 124.631 69.1137V68.1553C124.631 66.5524 124.533 65.8582 123.356 65.8582ZM119.531 68.8822C119.531 66.916 121.051 65.4618 123.34 65.4618C125.628 65.4618 127.164 66.8993 127.164 68.8657C127.164 70.8322 125.628 72.2864 123.34 72.2864C121.051 72.2864 119.531 70.8486 119.531 68.8822Z" fill="#215675"/>
<path d="M114.756 71.6088V66.1559H113.726V65.6601H114.756V65.3132C114.756 62.8676 116.259 61.149 118.156 61.149C119.333 61.149 120.068 61.7438 120.068 62.5701C120.068 63.2476 119.692 63.6276 119.038 63.6276C118.466 63.6276 118.058 63.2476 118.058 62.7024C118.058 62.2065 118.483 62.0249 118.483 61.843C118.483 61.7274 118.303 61.6118 118.009 61.6118C117.355 61.6118 116.962 62.1405 116.962 63.1649C116.962 63.9086 117.012 64.5366 117.012 65.0322V65.6601H118.417V66.1559H117.012V71.6088H118.156V72.1047H113.808V71.6088H114.756Z" fill="#215675"/>
<path d="M104.837 71.6095H105.818V66.1235H104.739V65.6112C105.801 65.6112 106.896 65.578 108.057 65.4956V67.1314C108.678 65.9912 109.463 65.4789 110.656 65.4789C112.356 65.4789 112.536 66.272 112.536 67.8253V71.6095H113.484V72.1051H109.495V71.6095H110.329V67.0487C110.329 66.4539 110.133 66.1731 109.659 66.1731C108.907 66.1731 108.073 67.247 108.073 68.5195V71.6095H108.89V72.1051H104.837V71.6095Z" fill="#215675"/>
<path d="M98.7602 72.105V71.576H100.068V61.8597H98.7602V61.3641H104.122V61.8597H102.814V71.576H104.122V72.105H98.7602Z" fill="#215675"/>
</svg>
